<!DOCTYPE svg PUBLIC "-//W3C//DTD SVG 20010904//EN" "http://www.w3.org/TR/2001/REC-SVG-20010904/DTD/svg10.dtd">
<svg version="1.0" xmlns="http://www.w3.org/2000/svg" width="80px" height="80px" viewBox="0 0 800 800" preserveAspectRatio="xMidYMid meet">
<g id="layer1" fill="#363636" stroke="none">
 <path d="M0 728 l1 -73 24 64 c31 79 31 81 0 81 -24 0 -25 -2 -25 -72z"/>
 <path d="M51 745 c-42 -97 -15 -204 62 -250 15 -9 35 -14 44 -11 14 6 15 -2 9 -65 -10 -94 -41 -219 -49 -190 -3 11 -3 45 0 76 7 84 -28 66 -59 -30 -26 -79 -30 -127 -13 -150 13 -17 19 -18 35 -7 24 14 33 2 29 -39 -1 -13 -1 -36 -1 -51 l2 -28 105 0 105 0 0 29 c0 16 -6 31 -12 34 -10 3 -10 13 0 48 8 24 14 52 15 62 1 17 37 25 37 7 0 -10 66 26 76 41 3 6 1 16 -6 24 -11 13 -13 147 -3 187 5 22 30 30 56 17 17 -8 16 -5 -5 13 -49 42 -36 63 37 59 15 0 12 3 -10 14 -16 8 -36 14 -42 15 -7 0 -13 4 -13 9 0 5 10 7 23 3 19 -5 20 -4 9 11 -8 9 -11 21 -7 27 3 5 -5 14 -20 20 -14 5 -34 18 -45 28 -20 18 -20 19 4 41 19 18 33 22 57 19 32 -5 33 -5 11 13 -12 9 -22 24 -22 33 0 33 -64 46 -229 46 l-156 0 -24 -55z m86 -130 c0 -8 -4 -12 -9 -9 -5 3 -6 10 -3 15 9 13 12 11 12 -6z m303 -95 c0 -5 -5 -10 -11 -10 -5 0 -7 5 -4 10 3 6 8 10 11 10 2 0 4 -4 4 -10z m-60 -110 c0 -5 -5 -10 -11 -10 -5 0 -7 5 -4 10 3 6 8 10 11 10 2 0 4 -4 4 -10z m-57 -18 c9 -10 18 -29 19 -43 3 -22 0 -24 -49 -27 -49 -3 -53 -1 -53 19 0 24 36 69 55 69 7 0 19 -8 28 -18z"/>
 <path d="M694 784 c29 -75 13 -147 -40 -183 -19 -13 -31 -27 -27 -30 5 -3 14 -18 20 -33 14 -31 28 -36 37 -13 3 8 16 15 30 15 28 0 36 16 36 77 0 54 -36 183 -51 183 -6 0 -8 -7 -5 -16z"/>
 <path d="M646 633 c-6 -14 -5 -15 5 -6 7 7 10 15 7 18 -3 3 -9 -2 -12 -12z"/>
 <path d="M540 520 c0 -13 28 -25 38 -16 3 4 0 11 -8 16 -20 13 -30 12 -30 0z"/>
 <path d="M573 450 c-37 -22 -67 -68 -38 -57 9 4 21 7 26 7 5 0 9 6 9 14 0 8 10 22 22 30 33 23 17 28 -19 6z"/>
 <path d="M496 288 c-13 -13 -27 -37 -31 -53 l-5 -30 72 5 c65 5 118 21 118 36 0 3 -12 4 -27 3 -16 -2 -37 2 -48 9 -20 12 -20 12 0 24 19 11 19 11 0 19 -34 13 -53 10 -79 -13z"/>
 <path d="M740 181 c0 -11 5 -23 10 -26 6 -3 10 3 10 14 0 11 -4 23 -10 26 -5 3 -10 -3 -10 -14z"/>
 </g>

</svg>